<svg width="27" height="27" viewBox="0 0 27 27" fill="none" xmlns="http://www.w3.org/2000/svg">
<g clip-path="url(#clip0_225_233)">
<path d="M23.625 5.625C22.3762 5.23125 21.0037 5.0625 19.6875 5.0625C17.4937 5.0625 15.1313 5.5125 13.5 6.75C11.8687 5.5125 9.50625 5.0625 7.3125 5.0625C5.11875 5.0625 2.75625 5.5125 1.125 6.75V23.2312C1.125 23.5125 1.40625 23.7937 1.6875 23.7937C1.8 23.7937 1.85625 23.7375 1.96875 23.7375C3.4875 23.0063 5.68125 22.5 7.3125 22.5C9.50625 22.5 11.8687 22.95 13.5 24.1875C15.0188 23.2313 17.775 22.5 19.6875 22.5C21.5438 22.5 23.4562 22.8375 25.0312 23.6812C25.1437 23.7375 25.2 23.7375 25.3125 23.7375C25.5938 23.7375 25.875 23.4563 25.875 23.175V6.75C25.2 6.24375 24.4688 5.90625 23.625 5.625ZM23.625 20.8125C22.3875 20.4187 21.0375 20.25 19.6875 20.25C17.775 20.25 15.0188 20.9812 13.5 21.9375V9C15.0188 8.04375 17.775 7.3125 19.6875 7.3125C21.0375 7.3125 22.3875 7.48125 23.625 7.875V20.8125Z" fill="black"/>
<path d="M19.6875 11.8125C20.6775 11.8125 21.6337 11.9138 22.5 12.105V10.395C21.6112 10.2262 20.655 10.125 19.6875 10.125C17.775 10.125 16.0425 10.4512 14.625 11.0587V12.9262C15.8963 12.2062 17.6625 11.8125 19.6875 11.8125Z" fill="black"/>
<path d="M14.625 14.0512V15.9187C15.8963 15.1987 17.6625 14.805 19.6875 14.805C20.6775 14.805 21.6337 14.9062 22.5 15.0975V13.3875C21.6112 13.2187 20.655 13.1175 19.6875 13.1175C17.775 13.1175 16.0425 13.455 14.625 14.0512Z" fill="black"/>
<path d="M19.6875 16.1213C17.775 16.1213 16.0425 16.4475 14.625 17.055V18.9225C15.8963 18.2025 17.6625 17.8088 19.6875 17.8088C20.6775 17.8088 21.6337 17.91 22.5 18.1013V16.3913C21.6112 16.2113 20.655 16.1213 19.6875 16.1213Z" fill="black"/>
</g>
<defs>
<clipPath id="clip0_225_233">
<rect width="27" height="27" fill="white"/>
</clipPath>
</defs>
</svg>
